<svg xmlns="http://www.w3.org/2000/svg" width="372" height="441" viewBox="0 0 372 441" color="#0f2536" role="img" aria-labelledby="title">
  <title id="title">Yeidle</title>
  <g id="mark" transform="translate(0 441) scale(.1 -.1)" fill="currentColor">
    <path d="M2925 4272c-100-34-196-107-315-237-202-221-440-622-694-1172l-89-191-81-45c-68-38-243-117-260-117-2 0-21 51-42 113-89 269-221 480-359 572-87 57-156 77-250 72-99-4-175-39-239-107-173-185-157-504 35-713 148-162 317-226 566-214l123 6 9-37c6-20 22-88 37-151 33-144 45-171 88-209 67-59 157-52 217 15 31 36 138 248 271 538l64 140 116 80c537 368 1006 903 1119 1275 26 85 31 205 11 261-16 46-66 97-117 120-51 24-144 24-210 1zm150-196c13-19 14-32 5-70-37-167-230-443-503-719-136-138-333-318-369-338-16-9-17-7-7 18 44 117 279 550 382 703 76 113 165 228 227 294 113 121 228 169 265 112zM902 3048c111-33 240-222 331-485l36-101-22-6c-41-11-172-6-235 9-84 20-135 47-197 106-65 61-100 125-116 211-21 115 18 224 93 261 40 20 58 21 110 5zm722-804-46-99-20 75c-11 41-16 76-11 78 4 1 33 13 63 25 30 13 56 22 58 21 2-1-18-46-44-100z"/>
  </g>

  <g id="wordmark" fill="none" stroke="currentColor" stroke-width="13.5" stroke-linecap="round" stroke-linejoin="round">
    <!-- All bowls use radius 28.5 and share the y=365 centerline. -->
    <g id="letter-y">
      <path d="M18.5 333v32a28.5 28.5 0 0 0 57 0v-32"/>
      <path d="M75.5 333v60a28.5 28.5 0 0 1-48.65 20.15"/>
    </g>

    <g id="letter-e-1">
      <!-- The crossbar and bowl use equal 20-unit cutbacks. -->
      <path d="M142.15 385.15A28.5 28.5 0 1 1 142.3 345C149.7 352.5 142.8 365 130.5 365H93.5"/>
    </g>

    <g id="letter-i">
      <path d="M171 334v60"/>
      <circle cx="171" cy="307" r="8.5" fill="currentColor" stroke="none"/>
    </g>

    <g id="letter-d">
      <circle cx="224.5" cy="365" r="28.5"/>
      <path d="M253 299v66"/>
    </g>

    <g id="letter-l">
      <path d="M279 299v95"/>
    </g>

    <g id="letter-e-2">
      <path d="M350.15 385.15A28.5 28.5 0 1 1 350.3 345C357.7 352.5 350.8 365 338.5 365H301.5"/>
    </g>
  </g>
</svg>
